<svg width="40" height="40" fill="none" xmlns="http://www.w3.org/2000/svg"><path d="M30 8.75h-2.5V7.5a1.25 1.25 0 0 0-2.5 0v1.25h-3.75V7.5a1.25 1.25 0 0 0-2.5 0v1.25H15V7.5a1.25 1.25 0 0 0-2.5 0v1.25H10a3.75 3.75 0 0 0-3.75 3.75V30A3.75 3.75 0 0 0 10 33.75h20A3.75 3.75 0 0 0 33.75 30V12.5A3.75 3.75 0 0 0 30 8.75zM8.75 12.5A1.25 1.25 0 0 1 10 11.25h2.5v1.25a1.25 1.25 0 0 0 2.5 0v-1.25h3.75v1.25a1.25 1.25 0 0 0 2.5 0v-1.25H25v1.25a1.25 1.25 0 0 0 2.5 0v-1.25H30a1.25 1.25 0 0 1 1.25 1.25v3.75H8.75V12.5zM31.25 30A1.25 1.25 0 0 1 30 31.25H10A1.25 1.25 0 0 1 8.75 30V18.75h22.5V30z" fill="#C1BBEB"/></svg>