<svg width="43" height="40" fill="none" xmlns="http://www.w3.org/2000/svg"><path d="M15.865 34.2a6.721 6.721 0 0 1-3.614-1.058 6.315 6.315 0 0 1-2.395-2.802 6.01 6.01 0 0 1-.371-3.605 6.173 6.173 0 0 1 1.778-3.197L22.32 12.925a3.934 3.934 0 0 1 1.27-.814 4.067 4.067 0 0 1 3 0c.475.189.907.465 1.271.814.364.349.652.763.85 1.219a3.62 3.62 0 0 1 0 2.875 3.75 3.75 0 0 1-.85 1.219l-11.07 10.6c-.117.13-.26.237-.422.312a1.351 1.351 0 0 1-1.49-.241 1.248 1.248 0 0 1-.292-.428 1.205 1.205 0 0 1 .04-1c.078-.156.19-.294.326-.406l11.056-10.612c.214-.24.326-.547.313-.862a1.226 1.226 0 0 0-.38-.835 1.332 1.332 0 0 0-.872-.366 1.34 1.34 0 0 0-.899.3l-11.07 10.6a3.68 3.68 0 0 0-1.148 2.656 3.68 3.68 0 0 0 1.148 2.657 4.006 4.006 0 0 0 2.77 1.1c1.04 0 2.037-.396 2.772-1.1L29.699 20a6.115 6.115 0 0 0 1.83-4.396 6.124 6.124 0 0 0-1.909-4.365 6.663 6.663 0 0 0-4.553-1.83 6.672 6.672 0 0 0-4.586 1.754l-6.454 6.25a1.333 1.333 0 0 1-.92.363c-.344 0-.674-.13-.919-.363a1.249 1.249 0 0 1-.285-.407 1.205 1.205 0 0 1 .285-1.368l6.455-6.25c1.711-1.641 4.033-2.563 6.454-2.563 2.42 0 4.742.922 6.454 2.563 1.712 1.64 2.673 3.866 2.673 6.187 0 2.32-.961 4.547-2.673 6.188l-11.07 10.612a6.548 6.548 0 0 1-2.118 1.353 6.767 6.767 0 0 1-2.498.472z" fill="#A098AE"/></svg>