<svg width="40" height="40" fill="none" xmlns="http://www.w3.org/2000/svg"><path d="M33.333 3.333H16.667a5 5 0 0 0-5 5v3.334h-5a5 5 0 0 0-5 5v10A5 5 0 0 0 5 31.383V35a1.667 1.667 0 0 0 .85 1.45c.25.141.53.216.817.217.299 0 .592-.08.85-.233l7.95-4.767h7.866a5 5 0 0 0 5-5v-1.05l4.15 2.483c.258.153.551.233.85.233A1.667 1.667 0 0 0 35 26.666V23.05a5 5 0 0 0 3.333-4.716v-10a5 5 0 0 0-5-5zM25 26.668a1.666 1.666 0 0 1-1.667 1.666H15c-.3 0-.593.081-.85.234L8.333 32.05V30a1.666 1.666 0 0 0-1.666-1.666A1.667 1.667 0 0 1 5 26.666v-10A1.667 1.667 0 0 1 6.667 15h5v3.334a5 5 0 0 0 5 5h7.866l.467.283v3.05zm10-8.334A1.667 1.667 0 0 1 33.333 20a1.667 1.667 0 0 0-1.666 1.667v2.05l-5.817-3.483A1.666 1.666 0 0 0 25 20h-8.333A1.666 1.666 0 0 1 15 18.334v-10a1.667 1.667 0 0 1 1.667-1.667h16.666A1.666 1.666 0 0 1 35 8.334v10z" fill="#C1BBEB"/></svg>