<svg width="38" height="37" fill="none" xmlns="http://www.w3.org/2000/svg"><path d="M33.29 20.409c-.42 0-.858-.13-1.278-.223a18.327 18.327 0 0 1-2.497-.727 3.899 3.899 0 0 0-2.73.046 3.779 3.779 0 0 0-2 1.816l-.419.838a23.185 23.185 0 0 1-5.072-3.724 22.736 22.736 0 0 1-3.814-4.953l.801-.521a3.76 3.76 0 0 0 1.86-1.952 3.643 3.643 0 0 0 .047-2.666 18.895 18.895 0 0 1-.744-2.44c-.095-.41-.171-.838-.229-1.266a5.559 5.559 0 0 0-1.983-3.35A5.807 5.807 0 0 0 11.495.002h-5.72a5.838 5.838 0 0 0-2.387.485c-.75.327-1.42.808-1.962 1.41A5.55 5.55 0 0 0 .242 3.978 5.46 5.46 0 0 0 .054 6.35c1.016 7.801 4.664 15.05 10.369 20.6 5.704 5.55 13.14 9.086 21.132 10.05h.724a5.8 5.8 0 0 0 3.814-1.415 5.596 5.596 0 0 0 1.414-1.895A5.474 5.474 0 0 0 38 31.395V25.81a5.51 5.51 0 0 0-1.365-3.524 5.753 5.753 0 0 0-3.345-1.876zm.953 11.172c0 .265-.058.526-.17.767-.111.24-.275.455-.478.63a2.067 2.067 0 0 1-1.564.465c-7.14-.894-13.774-4.084-18.853-9.067C8.099 19.392 4.864 12.9 3.982 5.922a1.984 1.984 0 0 1 .477-1.527c.178-.199.398-.358.645-.467.246-.109.514-.166.785-.166h5.72c.444-.01.877.132 1.225.4.348.269.589.648.682 1.071.076.509.172 1.012.286 1.508.22.982.514 1.947.877 2.887l-2.67 1.21a1.905 1.905 0 0 0-.604.427c-.17.18-.303.391-.39.622a1.822 1.822 0 0 0 .06 1.427c2.745 5.74 7.47 10.355 13.348 13.035.464.186.985.186 1.45 0 .237-.083.456-.212.642-.378.187-.166.338-.367.444-.59l1.183-2.607c.985.344 1.991.63 3.012.856.509.112 1.024.205 1.545.28.434.09.821.326 1.096.666.275.34.42.763.41 1.196l.038 5.81z" fill="#F5F5F5"/></svg>