<svg width="58" height="98" fill="none" xmlns="http://www.w3.org/2000/svg"><path d="M47.125.667A10.875 10.875 0 0 1 58 11.54v74.917a10.875 10.875 0 0 1-10.875 10.875h-36.25A10.875 10.875 0 0 1 0 86.458V11.542A10.875 10.875 0 0 1 10.875.666h36.25z" fill="#474747"/><path d="M18.98 44.28h-1.86l.4 2.92-2.34-1.8-.92 1.64 2.72.98-2.72 1.02.96 1.7 2.28-1.84-.38 2.9h1.84l-.42-2.9 2.28 1.8.92-1.64L19 48.04l2.74-1.02-.9-1.6-2.3 1.78.44-2.92zm10.078 0h-1.86l.4 2.92-2.34-1.8-.92 1.64 2.72.98-2.72 1.02.96 1.7 2.28-1.84-.38 2.9h1.84l-.42-2.9 2.28 1.8.92-1.64-2.74-1.02 2.74-1.02-.9-1.6-2.3 1.78.44-2.92zm10.078 0h-1.86l.4 2.92-2.34-1.8-.92 1.64 2.72.98-2.72 1.02.96 1.7 2.28-1.84-.38 2.9h1.84l-.42-2.9 2.28 1.8.92-1.64-2.74-1.02 2.74-1.02-.9-1.6-2.3 1.78.44-2.92z" fill="#fff"/></svg>