<svg width="41" height="39" fill="none" xmlns="http://www.w3.org/2000/svg"><path d="M37.142 21.297a9.017 9.017 0 0 0-7 .482l-3.512 1.503c-.283-1.539-1.526-2.695-3.06-2.74l-5.265-.056c-4.208-1.098-6.942.313-8.502 1.703-.319.284-.6.577-.846.866-.42-.431-1.164-.546-1.705-.263l-4.773 2.495c-.618.324-.888 1.034-.628 1.658l4.663 11.214c.307.737 1.249 1.063 1.984.678l4.772-2.495c.447-.234.71-.67.725-1.129h7.122c1.162 0 2.309-.29 3.317-.84 0 0 13.395-7.308 13.47-7.373 1.876-1.624 1.934-4.773-.762-5.703 1.076.371-2.297-.791 0 0zM8.54 35.771l-3.624-8.714 2.293-1.198 3.623 8.713-2.292 1.199zm27.572-10.833L23.036 32.06a4.023 4.023 0 0 1-1.92.486H13.01L10.287 26a6.599 6.599 0 0 1 1.438-1.867c1.528-1.361 3.542-1.71 5.986-1.035.122.033.248.051.376.053l5.404.057c.138.012.392.303.392.746 0 .455-.263.745-.4.745h-5.31v2.667h5.31c.657 0 1.27-.211 1.78-.574l6.08-2.601c.031-.014.063-.029.094-.045a6.072 6.072 0 0 1 4.747-.342c.617.213.171.899-.072 1.134zm-8.437-5.723c-5.57 0-10.1-4.31-10.1-9.607 0-5.298 4.53-9.608 10.1-9.608 5.569 0 10.1 4.31 10.1 9.608 0 5.297-4.531 9.607-10.1 9.607zm0-16.548c-4.02 0-7.292 3.113-7.292 6.94 0 3.828 3.271 6.941 7.292 6.941 4.02 0 7.291-3.113 7.291-6.94 0-3.828-3.27-6.941-7.291-6.941z" fill="#F5F5F5"/><path d="M28.327 8.52c-1.117-.435-1.203-.623-1.203-.84 0-.139.073-.461.743-.461.614 0 1.378.327 1.917.665l.75-1.87c-.535-.325-1.186-.603-1.794-.692V4.106h-2V5.44c-1.188.356-1.92 1.26-1.92 2.384 0 1.49 1.253 2.154 2.476 2.608.978.374 1.06.66 1.06.9 0 .367-.357.604-.908.604-.72 0-1.555-.394-2.14-.826l-.722 1.9c.597.44 1.288.731 2.065.84v1.26h2.012v-1.372c1.225-.371 2.01-1.337 2.01-2.491 0-1.616-1.254-2.306-2.346-2.726z" fill="#F5F5F5"/></svg>