<svg width="32" height="32" fill="none" xmlns="http://www.w3.org/2000/svg"><path d="m12.263 2.667-.846 3.799c-.482.232-.942.498-1.383.8L6.32 6.095 2.583 12.57l2.815 2.578a5.594 5.594 0 0 0 0 1.703L2.583 19.43l3.737 6.474 3.714-1.17c.441.301.901.568 1.383.8l.846 3.8h7.474l.846-3.8a10.62 10.62 0 0 0 1.383-.8l3.714 1.17 3.737-6.474-2.815-2.579c.023-.283.064-.567.065-.851 0-.293-.045-.59-.065-.852l2.815-2.578-3.737-6.474-3.714 1.17a10.632 10.632 0 0 0-1.383-.8l-.846-3.8h-7.474zm2.14 2.666h3.193l.66 2.958.66.26a7.995 7.995 0 0 1 2.076 1.199l.557.443 2.891-.91 1.596 2.766-2.234 2.05.107.703c.126.777.101 1.672 0 2.396l-.107.703 2.235 2.05-1.597 2.765-2.89-.909-.558.443a7.996 7.996 0 0 1-2.075 1.198l-.662.26-.659 2.959h-3.192l-.66-2.959-.66-.26a7.994 7.994 0 0 1-2.076-1.198l-.557-.443-2.891.909-1.596-2.766 2.234-2.05-.107-.702a7.994 7.994 0 0 1 0-2.396l.107-.703-2.234-2.05L7.56 9.284l2.89.909.558-.443a7.994 7.994 0 0 1 2.075-1.198l.662-.26.659-2.959zM16 10.666c-2.93 0-5.333 2.404-5.333 5.334 0 2.93 2.403 5.333 5.333 5.333S21.333 18.93 21.333 16 18.93 10.666 16 10.666zm0 2.667A2.647 2.647 0 0 1 18.667 16 2.647 2.647 0 0 1 16 18.666 2.647 2.647 0 0 1 13.333 16 2.647 2.647 0 0 1 16 13.333z" fill="#A098AE"/></svg>