<svg width="32" height="32" fill="none" xmlns="http://www.w3.org/2000/svg"><path d="M25.368 18.94V9.867C25.368 4.702 21.166.5 16 .5c-5.165 0-9.368 4.202-9.368 9.368v9.072a4.023 4.023 0 0 0-2.894 3.897 3.997 3.997 0 0 0 3.993 3.993h3.646v.047A4.628 4.628 0 0 0 16 31.5a4.628 4.628 0 0 0 4.623-4.623v-.047h3.646c2.202 0 3.993-1.791 3.993-4.072 0-1.817-1.229-3.338-2.894-3.819zM9.632 9.867A6.375 6.375 0 0 1 16 3.5a6.375 6.375 0 0 1 6.368 6.368v8.898H9.632V9.868zm7.991 17.009c0 .895-.728 1.623-1.623 1.623a1.625 1.625 0 0 1-1.623-1.623v-.047h3.246v.047zm6.646-3.047H7.731c-.547 0-.993-.446-.993-1.072 0-.547.446-.992.993-.992h16.538c.547 0 .993.445.993 1.071a.994.994 0 0 1-.993.993z" fill="#A098AE"/></svg>