<svg width="40" height="40" fill="none" xmlns="http://www.w3.org/2000/svg"><g clip-path="url(#a)"><path d="M23.883 33.333h-.35A3.333 3.333 0 0 1 20.6 30.7L16.133 10l-4.6 10.667a1.666 1.666 0 0 1-1.533 1H5a1.667 1.667 0 1 1 0-3.334h3.9l4.183-9.65a3.333 3.333 0 0 1 6.317.634L23.867 30l4.6-10.633A1.666 1.666 0 0 1 30 18.333h5a1.667 1.667 0 0 1 0 3.334h-3.9l-4.183 9.65a3.334 3.334 0 0 1-3.034 2.016z" fill="#C1BBEB"/></g><defs><clipPath id="a"><path fill="#fff" d="M0 0h40v40H0z"/></clipPath></defs></svg>