<svg width="40" height="40" fill="none" xmlns="http://www.w3.org/2000/svg"><path d="m33.333 13.333-10-8.766a5 5 0 0 0-6.666 0l-10 8.766A5 5 0 0 0 5 17.1v14.567a5 5 0 0 0 5 5h20a5 5 0 0 0 5-5V17.083a5 5 0 0 0-1.667-3.75zm-10 20h-6.666V25a1.667 1.667 0 0 1 1.666-1.667h3.334A1.666 1.666 0 0 1 23.333 25v8.333zm8.334-1.666A1.667 1.667 0 0 1 30 33.333h-3.333V25a5 5 0 0 0-5-5h-3.334a5 5 0 0 0-5 5v8.333H10a1.667 1.667 0 0 1-1.667-1.666V17.083a1.667 1.667 0 0 1 .567-1.25l10-8.75a1.666 1.666 0 0 1 2.2 0l10 8.75a1.667 1.667 0 0 1 .567 1.25v14.584z" fill="#C1BBEB"/></svg>