<svg width="35" height="35" fill="none" xmlns="http://www.w3.org/2000/svg"><path d="M31.367 30.302c-.1.304-.338.642-.728.756-.282.082-9.604 2.782-9.891 2.857-.82.219-1.391.058-1.766-.273-.57-.502-7.162-4.987-15.478-5.41-.89-.044-.454-3.415 2.087-3.415 1.742 0 6.832 1.265 7.446.65.475-.477.69-3.289-1.29-8.196l-3.98-9.865a1.829 1.829 0 0 1 3.39-1.366l3.475 8.608c.338.84.754 1.158 1.207.983.405-.154.489-.423.243-1.24l-3.58-10.55a1.826 1.826 0 1 1 3.46-1.175l3.405 10.03c.301.883.62 1.345 1.124 1.131.303-.128.282-.591.201-.996l-2.39-9.574a1.828 1.828 0 1 1 3.547-.885l2.205 8.823c.322 1.297.618 1.764 1.13 1.636.523-.127.499-.558.427-.913l-1.526-7.574a1.662 1.662 0 0 1 3.255-.656L29 11.932l.001.002v.001l.994 4.944c.217.933.465 1.811.787 2.672 1.9 5.056.909 9.737.585 10.75z" fill="#4F4F4F"/></svg>