<svg width="40" height="40" fill="none" xmlns="http://www.w3.org/2000/svg"><g clip-path="url(#a)"><path fill-rule="evenodd" clip-rule="evenodd" d="M5 35a3.75 3.75 0 0 0 3.75 3.75h22.5A3.75 3.75 0 0 0 35 35V24.586a3.749 3.749 0 0 0-3.079-3.688c-2.642-.482-7.198-1.31-9.776-1.778a11.95 11.95 0 0 0-4.29 0c-2.578.467-7.134 1.296-9.776 1.777A3.749 3.749 0 0 0 5 24.588V35zm17.885-13.205 1.876 7.134a2.448 2.448 0 0 1-.841 2.535l-2.349 1.875a2.522 2.522 0 0 1-3.142 0l-2.349-1.875a2.448 2.448 0 0 1-.841-2.535l1.876-7.134-8.589 1.561a1.252 1.252 0 0 0-1.026 1.23V35c0 .69.56 1.25 1.25 1.25h22.5c.69 0 1.25-.56 1.25-1.25V24.586c0-.603-.432-1.121-1.026-1.23l-8.589-1.561zm-2.681-.366a7.288 7.288 0 0 0-.408 0l-2.13 8.102 2.323 1.853a.016.016 0 0 0 .022 0l2.323-1.853-2.13-8.102zM20 1.25a8.13 8.13 0 0 0-8.125 8.125A8.13 8.13 0 0 0 20 17.5a8.13 8.13 0 0 0 8.125-8.125A8.13 8.13 0 0 0 20 1.25zm0 2.5a5.627 5.627 0 0 1 5.625 5.625A5.627 5.627 0 0 1 20 15a5.627 5.627 0 0 1-5.625-5.625A5.627 5.627 0 0 1 20 3.75z" fill="#C1BBEB"/></g><defs><clipPath id="a"><path fill="#fff" d="M0 0h40v40H0z"/></clipPath></defs></svg>