<?xml version="1.0" standalone="no"?>
<!DOCTYPE svg PUBLIC "-//W3C//DTD SVG 20010904//EN"
 "http://www.w3.org/TR/2001/REC-SVG-20010904/DTD/svg10.dtd">
<svg version="1.0" xmlns="http://www.w3.org/2000/svg"
 width="277.000000pt" height="277.000000pt" viewBox="0 0 277.000000 277.000000"
 preserveAspectRatio="xMidYMid meet">
<metadata>
Created by potrace 1.14, written by Peter Selinger 2001-2017
</metadata>
<g transform="translate(0.000000,277.000000) scale(0.100000,-0.100000)"
fill="#000000" stroke="none">
<path d="M1059 2016 c-29 -50 -61 -106 -72 -123 l-19 -33 39 0 c38 0 39 1 91
93 l53 93 229 0 229 0 45 -76 c25 -42 48 -84 52 -93 3 -9 13 -17 21 -17 7 0
13 -6 12 -12 -1 -7 3 -26 10 -43 18 -42 28 -124 25 -194 -3 -53 -13 -93 -39
-155 -7 -15 -5 -17 6 -11 8 5 11 5 6 -1 -5 -5 -14 -9 -20 -9 -6 0 -16 -9 -22
-20 -35 -68 -88 -156 -97 -161 -18 -11 -448 -8 -459 3 -14 14 -89 143 -89 154
0 4 -9 13 -20 19 -11 6 -19 14 -18 18 1 4 -6 32 -17 62 -25 74 -24 204 2 282
l19 57 -36 -1 c-29 0 -40 -6 -58 -32 -58 -86 -42 -335 25 -365 13 -6 23 -17
23 -25 0 -14 12 -36 99 -180 l36 -59 264 -1 264 -1 33 51 c18 28 43 69 54 90
12 22 29 53 39 69 10 17 16 36 13 44 -3 9 -1 12 5 8 13 -8 63 47 64 71 0 9 3
28 6 42 12 54 5 166 -13 220 -17 50 -23 56 -59 66 -31 9 -35 12 -18 15 20 4
16 12 -50 126 l-70 122 -268 -1 -267 -1 -53 -91z"/>
<path d="M1054 1825 c-30 -45 -43 -113 -40 -198 6 -132 52 -215 93 -167 16 18
55 111 49 117 -3 4 -48 11 -69 12 -15 1 -18 9 -15 54 3 52 3 52 36 52 18 0 37
7 42 15 11 17 -23 110 -47 128 -24 17 -30 15 -49 -13z"/>
<path d="M1651 1836 c-18 -22 -47 -109 -43 -128 2 -10 9 -15 18 -11 8 3 26 2
40 -1 23 -6 25 -10 22 -58 l-3 -52 -39 1 -38 0 6 -38 c8 -51 23 -82 47 -97 17
-11 23 -9 41 11 34 38 48 102 44 202 -4 92 -15 136 -43 167 -19 22 -37 23 -52
4z"/>
<path d="M834 1803 c-33 -23 -51 -161 -32 -243 13 -54 31 -77 58 -75 30 2 31
6 17 74 -12 58 -12 76 6 226 2 21 -28 32 -49 18z"/>
<path d="M1875 1778 c17 -74 20 -116 12 -178 -15 -126 -17 -118 33 -111 39 5
62 176 33 260 -17 51 -27 61 -62 61 -21 0 -23 -3 -16 -32z"/>
<path d="M1097 1663 c-11 -10 -8 -41 3 -48 9 -5 235 -8 503 -6 l67 1 0 30 0
30 -283 0 c-156 0 -287 -3 -290 -7z"/>
<path d="M642 1036 c-4 -6 -8 -64 -8 -129 l-2 -118 32 3 c29 3 31 6 32 43 1
22 2 43 3 46 1 4 25 6 54 5 49 -1 52 0 55 26 3 26 2 27 -55 30 -50 3 -58 6
-58 23 0 22 0 22 80 24 52 1 55 3 55 26 0 28 4 26 -108 29 -43 1 -76 -2 -80
-8z"/>
<path d="M868 1037 c-2 -6 -4 -64 -3 -127 l0 -115 30 0 30 0 1 123 c0 67 -2
122 -5 123 -3 0 -16 2 -28 5 -11 2 -23 -2 -25 -9z"/>
<path d="M971 1040 c-13 -10 -6 -55 9 -52 7 2 24 1 36 -2 20 -5 21 -12 22 -88
0 -46 1 -89 1 -95 1 -7 14 -13 30 -13 l28 0 2 92 c1 50 5 96 7 100 3 5 16 8
27 7 12 0 27 -1 32 0 14 1 15 51 1 52 -37 4 -189 3 -195 -1z"/>
<path d="M1215 1041 c-3 -2 -5 -60 -5 -128 l0 -123 30 0 29 0 3 70 3 71 53
-71 c45 -61 57 -71 80 -68 l26 3 0 118 c1 115 -4 135 -31 131 -7 -1 -17 -2
-22 -3 -4 0 -8 -23 -7 -50 1 -27 -1 -57 -4 -67 -6 -17 -8 -17 -18 3 -7 12 -18
27 -24 35 -7 7 -25 29 -39 48 -24 32 -59 46 -74 31z"/>
<path d="M1500 1042 c-13 -2 -16 -24 -15 -127 l0 -124 89 -3 c48 -2 91 -1 95
2 4 3 10 15 13 28 7 24 7 24 -71 26 -46 1 -55 4 -62 24 -8 21 -6 22 55 22 l63
0 -5 28 c-3 26 -7 27 -50 27 -62 -1 -71 2 -65 26 5 16 14 19 69 19 62 0 64 1
64 25 0 14 -6 25 -12 26 -37 3 -155 4 -168 1z"/>
<path d="M1765 1040 c-32 -12 -47 -36 -47 -75 0 -42 17 -58 80 -76 50 -14 57
-22 36 -40 -13 -10 -23 -10 -60 4 -43 16 -44 15 -55 -5 -32 -59 127 -85 173
-28 18 22 17 75 -2 94 -6 6 -32 18 -58 27 -27 9 -48 23 -50 32 -4 20 25 23 63
5 22 -10 27 -9 40 8 19 25 19 27 -5 41 -25 16 -89 23 -115 13z"/>
<path d="M1981 1039 c-25 -10 -51 -63 -44 -90 7 -26 29 -42 82 -59 47 -15 54
-27 27 -45 -10 -6 -26 -4 -52 8 -35 17 -37 17 -50 0 -19 -25 -17 -31 14 -47
53 -28 115 -24 148 9 19 20 24 32 20 57 -6 40 -22 55 -76 71 -52 15 -69 47
-26 47 15 0 35 -6 47 -12 17 -11 22 -10 35 6 19 26 18 30 -10 45 -29 16 -85
20 -115 10z"/>
</g>
</svg>
